<svg width="657" height="657" viewBox="0 0 657 657" fill="none" xmlns="http://www.w3.org/2000/svg">
<rect width="657" height="657" rx="120" fill="url(#paint0_linear_209_4)" style=""/>
<rect width="657" height="133" fill="#005BFF" style="fill:#005BFF;fill:color(display-p3 0.0000 0.3569 1.0000);fill-opacity:1;"/>
<path d="M209.469 290.262V311.746C209.469 321.967 208.199 330.952 205.66 338.699C203.121 346.447 199.508 352.957 194.82 358.23C190.133 363.439 184.566 367.378 178.121 370.047C171.741 372.651 164.645 373.953 156.832 373.953C148.954 373.953 141.793 372.651 135.348 370.047C128.902 367.378 123.336 363.439 118.648 358.23C113.961 352.957 110.348 346.447 107.809 338.699C105.27 330.952 104 321.967 104 311.746V290.262C104 280.04 105.27 271.023 107.809 263.211C110.348 255.398 113.928 248.888 118.551 243.68C123.238 238.471 128.805 234.533 135.25 231.863C141.695 229.194 148.857 227.859 156.734 227.859C164.547 227.859 171.676 229.194 178.121 231.863C184.632 234.533 190.198 238.471 194.82 243.68C199.443 248.888 203.023 255.398 205.562 263.211C208.167 271.023 209.469 280.04 209.469 290.262ZM175.582 311.746V290.066C175.582 283.686 175.191 278.25 174.41 273.758C173.629 269.266 172.457 265.62 170.895 262.82C169.332 260.021 167.379 257.97 165.035 256.668C162.691 255.366 159.924 254.715 156.734 254.715C153.414 254.715 150.582 255.366 148.238 256.668C145.895 257.97 143.941 260.021 142.379 262.82C140.882 265.62 139.775 269.266 139.059 273.758C138.342 278.25 137.984 283.686 137.984 290.066V311.746C137.984 318.061 138.342 323.465 139.059 327.957C139.775 332.384 140.882 336.03 142.379 338.895C143.941 341.759 145.927 343.875 148.336 345.242C150.745 346.544 153.577 347.195 156.832 347.195C159.957 347.195 162.691 346.544 165.035 345.242C167.444 343.875 169.397 341.759 170.895 338.895C172.457 336.03 173.629 332.384 174.41 327.957C175.191 323.465 175.582 318.061 175.582 311.746ZM316.402 345.633V372H229.391V345.633H316.402ZM316.305 247.391L246.09 372H221.871V353.934L293.062 229.812H316.305V247.391ZM305.66 229.812V256.277H220.699V229.812H305.66ZM432.125 290.262V311.746C432.125 321.967 430.855 330.952 428.316 338.699C425.777 346.447 422.164 352.957 417.477 358.23C412.789 363.439 407.223 367.378 400.777 370.047C394.397 372.651 387.301 373.953 379.488 373.953C371.611 373.953 364.449 372.651 358.004 370.047C351.559 367.378 345.992 363.439 341.305 358.23C336.617 352.957 333.004 346.447 330.465 338.699C327.926 330.952 326.656 321.967 326.656 311.746V290.262C326.656 280.04 327.926 271.023 330.465 263.211C333.004 255.398 336.585 248.888 341.207 243.68C345.895 238.471 351.461 234.533 357.906 231.863C364.352 229.194 371.513 227.859 379.391 227.859C387.203 227.859 394.332 229.194 400.777 231.863C407.288 234.533 412.854 238.471 417.477 243.68C422.099 248.888 425.68 255.398 428.219 263.211C430.823 271.023 432.125 280.04 432.125 290.262ZM398.238 311.746V290.066C398.238 283.686 397.848 278.25 397.066 273.758C396.285 269.266 395.113 265.62 393.551 262.82C391.988 260.021 390.035 257.97 387.691 256.668C385.348 255.366 382.581 254.715 379.391 254.715C376.07 254.715 373.238 255.366 370.895 256.668C368.551 257.97 366.598 260.021 365.035 262.82C363.538 265.62 362.431 269.266 361.715 273.758C360.999 278.25 360.641 283.686 360.641 290.066V311.746C360.641 318.061 360.999 323.465 361.715 327.957C362.431 332.384 363.538 336.03 365.035 338.895C366.598 341.759 368.583 343.875 370.992 345.242C373.401 346.544 376.233 347.195 379.488 347.195C382.613 347.195 385.348 346.544 387.691 345.242C390.1 343.875 392.053 341.759 393.551 338.895C395.113 336.03 396.285 332.384 397.066 327.957C397.848 323.465 398.238 318.061 398.238 311.746ZM551.852 229.812V372H518.551L482.906 283.523V372H449.508V229.812H482.906L518.551 318.289V229.812H551.852Z" fill="url(#paint1_linear_209_4)" style=""/>
<path d="M209.469 451.262V472.746C209.469 482.967 208.199 491.952 205.66 499.699C203.121 507.447 199.508 513.957 194.82 519.23C190.133 524.439 184.566 528.378 178.121 531.047C171.741 533.651 164.645 534.953 156.832 534.953C148.954 534.953 141.793 533.651 135.348 531.047C128.902 528.378 123.336 524.439 118.648 519.23C113.961 513.957 110.348 507.447 107.809 499.699C105.27 491.952 104 482.967 104 472.746V451.262C104 441.04 105.27 432.023 107.809 424.211C110.348 416.398 113.928 409.888 118.551 404.68C123.238 399.471 128.805 395.533 135.25 392.863C141.695 390.194 148.857 388.859 156.734 388.859C164.547 388.859 171.676 390.194 178.121 392.863C184.632 395.533 190.198 399.471 194.82 404.68C199.443 409.888 203.023 416.398 205.562 424.211C208.167 432.023 209.469 441.04 209.469 451.262ZM175.582 472.746V451.066C175.582 444.686 175.191 439.25 174.41 434.758C173.629 430.266 172.457 426.62 170.895 423.82C169.332 421.021 167.379 418.97 165.035 417.668C162.691 416.366 159.924 415.715 156.734 415.715C153.414 415.715 150.582 416.366 148.238 417.668C145.895 418.97 143.941 421.021 142.379 423.82C140.882 426.62 139.775 430.266 139.059 434.758C138.342 439.25 137.984 444.686 137.984 451.066V472.746C137.984 479.061 138.342 484.465 139.059 488.957C139.775 493.384 140.882 497.03 142.379 499.895C143.941 502.759 145.927 504.875 148.336 506.242C150.745 507.544 153.577 508.195 156.832 508.195C159.957 508.195 162.691 507.544 165.035 506.242C167.444 504.875 169.397 502.759 170.895 499.895C172.457 497.03 173.629 493.384 174.41 488.957C175.191 484.465 175.582 479.061 175.582 472.746ZM316.402 506.633V533H229.391V506.633H316.402ZM316.305 408.391L246.09 533H221.871V514.934L293.062 390.812H316.305V408.391ZM305.66 390.812V417.277H220.699V390.812H305.66ZM432.125 451.262V472.746C432.125 482.967 430.855 491.952 428.316 499.699C425.777 507.447 422.164 513.957 417.477 519.23C412.789 524.439 407.223 528.378 400.777 531.047C394.397 533.651 387.301 534.953 379.488 534.953C371.611 534.953 364.449 533.651 358.004 531.047C351.559 528.378 345.992 524.439 341.305 519.23C336.617 513.957 333.004 507.447 330.465 499.699C327.926 491.952 326.656 482.967 326.656 472.746V451.262C326.656 441.04 327.926 432.023 330.465 424.211C333.004 416.398 336.585 409.888 341.207 404.68C345.895 399.471 351.461 395.533 357.906 392.863C364.352 390.194 371.513 388.859 379.391 388.859C387.203 388.859 394.332 390.194 400.777 392.863C407.288 395.533 412.854 399.471 417.477 404.68C422.099 409.888 425.68 416.398 428.219 424.211C430.823 432.023 432.125 441.04 432.125 451.262ZM398.238 472.746V451.066C398.238 444.686 397.848 439.25 397.066 434.758C396.285 430.266 395.113 426.62 393.551 423.82C391.988 421.021 390.035 418.97 387.691 417.668C385.348 416.366 382.581 415.715 379.391 415.715C376.07 415.715 373.238 416.366 370.895 417.668C368.551 418.97 366.598 421.021 365.035 423.82C363.538 426.62 362.431 430.266 361.715 434.758C360.999 439.25 360.641 444.686 360.641 451.066V472.746C360.641 479.061 360.999 484.465 361.715 488.957C362.431 493.384 363.538 497.03 365.035 499.895C366.598 502.759 368.583 504.875 370.992 506.242C373.401 507.544 376.233 508.195 379.488 508.195C382.613 508.195 385.348 507.544 387.691 506.242C390.1 504.875 392.053 502.759 393.551 499.895C395.113 497.03 396.285 493.384 397.066 488.957C397.848 484.465 398.238 479.061 398.238 472.746ZM551.852 390.812V533H518.551L482.906 444.523V533H449.508V390.812H482.906L518.551 479.289V390.812H551.852Z" fill="url(#paint2_linear_209_4)" style=""/>
<defs>
<linearGradient id="paint0_linear_209_4" x1="328.5" y1="0" x2="328.5" y2="657" gradientUnits="userSpaceOnUse">
<stop stop-color="#F4FAFA" style="stop-color:#F4FAFA;stop-color:color(display-p3 0.9569 0.9804 0.9804);stop-opacity:1;"/>
<stop offset="1" stop-color="#DFE4E8" style="stop-color:#DFE4E8;stop-color:color(display-p3 0.8745 0.8941 0.9098);stop-opacity:1;"/>
</linearGradient>
<linearGradient id="paint1_linear_209_4" x1="329.538" y1="223.562" x2="329.538" y2="372.25" gradientUnits="userSpaceOnUse">
<stop stop-color="#005BFF" style="stop-color:#005BFF;stop-color:color(display-p3 0.0000 0.3569 1.0000);stop-opacity:1;"/>
<stop offset="0.749475" stop-color="#0051E3" style="stop-color:#0051E3;stop-color:color(display-p3 0.0000 0.3183 0.8921);stop-opacity:1;"/>
<stop offset="1" stop-color="#0043BB" style="stop-color:#0043BB;stop-color:color(display-p3 0.0000 0.2621 0.7345);stop-opacity:1;"/>
</linearGradient>
<linearGradient id="paint2_linear_209_4" x1="329.538" y1="384.562" x2="329.538" y2="533.25" gradientUnits="userSpaceOnUse">
<stop stop-color="#F4342F" style="stop-color:#F4342F;stop-color:color(display-p3 0.9582 0.2037 0.1853);stop-opacity:1;"/>
<stop offset="1" stop-color="#B62A26" style="stop-color:#B62A26;stop-color:color(display-p3 0.7149 0.1628 0.1494);stop-opacity:1;"/>
</linearGradient>
</defs>
</svg>
